# xmcd
#
# Track frame offsets:
#	150
#	17096
#	33534
#	51179
#	71522
#	87447
#	104240
#	118237
#	133039
#	145861
#	164764
#
# Disc length: 2426 seconds
#
# Revision: 1
# Processed by: cddbd v1.5.2PL0 Copyright (c) Steve Scherf et al.
# Submitted via: audiograbber 1.83.01
#
DISCID=a809780b
DTITLE=Eli Young Band - Level
DYEAR=2005
DGENRE=Country
TTITLE0=Small Town Kid
TTITLE1=So Close Now
TTITLE2=That's The Way
TTITLE3=Level
TTITLE4=Oklahoma Girl
TTITLE5=Everything Is You
TTITLE6=Girl in Red
TTITLE7=Bring It on Home
TTITLE8=I Call the Tune
TTITLE9=Highways and Broken Hearts
TTITLE10=Bottom Line
EXTD=
EXTT0=
EXTT1=
EXTT2=
EXTT3=
EXTT4=
EXTT5=
EXTT6=
EXTT7=
EXTT8=
EXTT9=
EXTT10=
PLAYORDER=
